<mxfile host="app.diagrams.net" modified="2023-10-31T06:41:22.301Z" agent="Mozilla/5.0 (Windows NT 10.0; Win64; x64) AppleWebKit/537.36 (KHTML, like Gecko) Chrome/118.0.0.0 Safari/537.36" version="22.0.8" etag="N5Sj9bqVNbdt7ZaukwBS" type="github">
  <diagram name="第 1 页" id="Xh0IPqVWEHNRYGE0R9G0">
    <mxGraphModel>
      <root>
        <mxCell id="0" />
        <mxCell id="1" parent="0" />
      </root>
    </mxGraphModel>
  </diagram>
</mxfile>
